<svg xmlns="http://www.w3.org/2000/svg" xmlns:xlink="http://www.w3.org/1999/xlink" version="1.1" x="0px" y="0px" viewBox="0 0 100 125" style="enable-background:new 0 0 100 100;" xml:space="preserve"><path d="M82.5,7.9l15,26.3H80.7L69.4,7.9H82.5z M61.4,7.9l11.4,26.3H27.2L38.6,7.9H61.4z M17.6,7.9h13L19.3,34.2H2.5L17.6,7.9z   M2.5,39.5h16.6l20.2,41.4c0.1,0.2,0,0.5-0.2,0.6c-0.2,0.1-0.4,0.1-0.6-0.1L2.5,39.5z M26.9,39.5H73L50.5,91.8  c-0.1,0.2-0.3,0.3-0.5,0.3c-0.2,0-0.4-0.1-0.5-0.3L26.9,39.5z M60.4,80.9l20.2-41.4h16.8L61.4,81.4c-0.2,0.2-0.4,0.2-0.6,0.1  c-0.2-0.1-0.3-0.4-0.2-0.6L60.4,80.9z"/><text x="0" y="115" fill="#000000" font-size="5px" font-weight="bold" font-family="'Helvetica Neue', Helvetica, Arial-Unicode, Arial, Sans-serif">Created by nabilahazharah</text><text x="0" y="120" fill="#000000" font-size="5px" font-weight="bold" font-family="'Helvetica Neue', Helvetica, Arial-Unicode, Arial, Sans-serif">from the Noun Project</text></svg>