<svg xmlns="http://www.w3.org/2000/svg" version="1.1" viewBox="-5.0 -10.0 110.0 135.0">
 <path d="m52.598 3.6523c-0.007812-0.007813-0.019531-0.011719-0.03125-0.019532-0.13672-0.15234-0.30469-0.27344-0.49219-0.35547l-0.035157-0.011719c-0.17187-0.074219-0.35547-0.11328-0.53906-0.12109-0.03125-0.003906-0.058594-0.019531-0.09375-0.019531s-0.039062 0.011719-0.0625 0.015625h-0.10156c-0.16016 0.019531-0.32031 0.0625-0.46875 0.13281-0.019532 0-0.03125 0.023437-0.050782 0.03125-0.16016 0.082031-0.30078 0.19141-0.42578 0.32422-0.019531 0.019532-0.046875 0.027344-0.0625 0.046875l-34.195 40.09c-0.10937 0.12891-0.19531 0.27344-0.25781 0.42578l-4.4336 10.895c-0.22656 0.5625-0.10547 1.2109 0.3125 1.6523l37.047 39.641c0.023438 0.023438 0.058594 0.035156 0.085938 0.058594h-0.003907c0.10547 0.097656 0.21875 0.17969 0.34375 0.24219 0.050782 0.03125 0.097657 0.054687 0.14844 0.078124 0.17969 0.074219 0.37109 0.11328 0.5625 0.11719h0.023438c0.19531-0.003906 0.38672-0.046875 0.5625-0.125 0.054687-0.023438 0.10547-0.046875 0.15625-0.078125 0.125-0.066406 0.23828-0.15234 0.33984-0.25 0.027344-0.023437 0.0625-0.035156 0.085938-0.0625l35.773-39.953c0.019532-0.027344 0.039063-0.050781 0.054688-0.078125 0.03125-0.035156 0.058594-0.066406 0.085937-0.10156 0.015625-0.023437 0.015625-0.050781 0.03125-0.078124 0.078125-0.12891 0.13672-0.27344 0.17188-0.42188 0.011719-0.03125 0.023438-0.066406 0.03125-0.097656l0.007813-0.023437 1.582-10.137c0.070312-0.46094-0.066406-0.92578-0.37109-1.2734zm31.859 49.062-9.6641-6.4062-16.117-31.043 26.875 30.449zm-21.02-4.3242-20.547-4.7695 9.0234-34.605 19.387 37.344zm-23.906-4.2812-4.1953 5.8906-15.484-5.8945 28.344-33.223zm2.1055 2.4297 19.844 4.6055-11.691 38.906-12.156-37.887zm23.059 4.7539 8.6055-2.2188 9.9453 6.5977-29.891 33.375zm-46.598-4.5078 16.555 6.3008 11.574 36.07-31.609-33.82z"/>
</svg>