<svg xmlns="http://www.w3.org/2000/svg" version="1.1" viewBox="-5.0 -10.0 110.0 135.0">
 <g>
  <path d="m91.809 64.551c-1.1719-1.3359-3.1758-1.1328-4.8008-0.91406 0.76563 1.2148 1.2773 2.5078 1.6055 3.9648l-3.1641 0.57813c-4.7109-17.039-36.375-0.46484-50.211-14.461-10.309-8.5-9.4336-22.93-5.2656-29.969 2.3008-4.3711-4.0977-8.7852-6.5352-10.418-3.8281-2.2227-7.7617 1.8945-10.484 4.9102-1.4453 1.7656-1.3008 4.3359 0.32031 5.8438 2.9062 2.6797 3.5781 6.8242 3.6914 7.7695-18.941 19.633-10.461 39.57 7.4336 49.426 19.227 10.852 49.867 10.055 62.539-5.0234 0.96094-1.3477 2.168-2.1836 3.5781-2.5039 4.7656-1.0352 3.4141-7.3477 1.2852-9.1992zm-62.816 11.43c-0.41016 0.78516-1.4141 1.1055-2.168 0.67578-4.8789-2.5508-8.8594-6.082-11.543-10.242-3.707-5.7617-4.7188-11.672-3.0195-17.562 0.25781-0.85156 1.1406-1.3477 1.9922-1.0898 0.85156 0.24219 1.3477 1.1406 1.1094 1.9922-3.0039 9.5234 4.0508 19.578 12.938 24.062 0.78516 0.41797 1.0898 1.3789 0.69141 2.168z"/>
  <path d="m33.906 47.535c6.5469 9.3633 16.805 9.543 27.723 9.293 4.7812-0.17969 10.75-0.84375 15.121 0.30469 6.3008-8.043 6.2305-21.195-0.19141-29.137-0.12891 0.25781-0.28906 0.49609-0.44922 0.73828-1.9648 3.1562-5.3516 5.2812-9.1836 5.2188-1.7539 0-3.5703-0.40234-5.3008-1.0664-0.83594-0.32031-1.2617-1.2656-0.91797-2.0938 0.003907-0.011719 0.007813-0.019531 0.011719-0.03125 0.32812-0.78906 1.2422-1.1719 2.0352-0.85938 12.59 4.957 14.09-12.398 13.707-18.152-0.015626-0.20703-0.19141-0.38672-0.41797-0.36719-9.4531 0.46484-15.297 2.793-17.387 6.9336-0.77344 1.4961-0.96094 3.3008-0.75391 4.8008 2.2578-2.7461 5.2969-4.7344 8.668-5.8828 0.82813-0.28125 1.7383 0.12109 2.0508 0.9375 0.32031 0.83984-0.11328 1.7773-0.96094 2.0742-2.0625 0.72266-4.043 1.7812-5.5977 3.207-3.7617 3.0508-5.7891 8.9453-5.8594 13.355 2.793-0.20703 5.4961 1.418 6.7578 3.9805 0.95703 1.8906-1.8281 3.3555-2.8398 1.4922-1.8477-3.5156-5.6016-2.0547-6.6133-1.5898-1.8828 1.2344-3.6836-1.5547-1.7344-2.7109 0.046874-0.03125 0.51172-0.27344 1.2344-0.53125 0.015626-2.6797 0.46484-6.7266 2.4883-10.66-0.83203-2.2031-1.3398-5.5703-0.30469-8.4609-12.617 0.94531-22.586 11.508-22.586 24.352-0.035157 1.7656 0.0625 3.4883 1.3008 4.8477z"/>
 </g>
<text x="0.0" y="117.5" font-size="5.0" font-weight="bold" font-family="Arbeit Regular, Helvetica, Arial-Unicode, Arial, Sans-serif" fill="#000000">Created by Sentya Irma</text><text x="0.0" y="122.5" font-size="5.0" font-weight="bold" font-family="Arbeit Regular, Helvetica, Arial-Unicode, Arial, Sans-serif" fill="#000000">from Noun Project</text></svg>