<svg xmlns="http://www.w3.org/2000/svg" version="1.1" viewBox="-5.0 -10.0 110.0 135.0">
 <path d="m78.523 34.531c-0.042969-0.17188-0.11719-0.33203-0.21875-0.47656-0.011719-0.019532-0.011719-0.039063-0.023438-0.058594-0.011719-0.015625-0.035156-0.027344-0.050781-0.046875h-0.003907c-0.023437-0.042969-0.054687-0.082031-0.085937-0.12109l-28.516-30.215c-0.082031-0.074219-0.17578-0.14453-0.27344-0.19922-0.046874-0.039062-0.089843-0.078124-0.14062-0.10937h-0.023438c-0.17578-0.089844-0.36719-0.14063-0.56641-0.15625-0.035156 0-0.066406 0.007812-0.10156 0h0.003907c-0.16016-0.007813-0.31641 0.011718-0.46875 0.050781-0.070313 0.027343-0.13672 0.0625-0.20313 0.097656-0.10156 0.039063-0.19531 0.085937-0.28906 0.14062l-29.004 21.441c-0.35156 0.26172-0.57812 0.65625-0.625 1.0938l-4.2305 41.996c-0.011719 0.15234 0 0.30469 0.03125 0.45703 0 0.03125 0.015625 0.0625 0.027344 0.097657 0.042969 0.17578 0.11328 0.33984 0.21484 0.48828l0.011719 0.015625c0.066407 0.09375 0.14062 0.17969 0.22656 0.25781l30.207 27.188c0.082031 0.0625 0.16797 0.11328 0.26172 0.15625 0.066406 0.046875 0.13281 0.089844 0.20312 0.125 0.26953 0.11328 0.56641 0.14453 0.85156 0.09375l22.355-3.9219c0.41406-0.074219 0.78125-0.3125 1.0195-0.66016l16.918-24.766c0.25-0.36719 0.33203-0.82031 0.22656-1.25zm-47.742 12.004 13.125 9.9805v35.289l-26.621-23.957zm14.785 7.3125-13.309-10.117 6.3516-16.262 21.672 17.238zm17.484-10.938-23.152-18.402 8.9609-17.152 25.781 27.309zm-42.074-15.93 22.984-17-7.4297 14.219c-0.027344 0.050781-0.050781 0.10156-0.070312 0.15625l-7.5 19.195-11.484 18.148zm45.938 62.98-19.883 3.4922v-36.844l16.781-10.418c0.011719 0 0.019531-0.019531 0.03125-0.027344 0.019531-0.007812 0.035156-0.015624 0.050781-0.027343l12.141-8.6367 7.0234 28.805z"/>
<text x="0.0" y="117.5" font-size="5.0" font-weight="bold" font-family="Arbeit Regular, Helvetica, Arial-Unicode, Arial, Sans-serif" fill="#000000">Created by ratnaningsih nining</text><text x="0.0" y="122.5" font-size="5.0" font-weight="bold" font-family="Arbeit Regular, Helvetica, Arial-Unicode, Arial, Sans-serif" fill="#000000">from Noun Project</text></svg>