<svg xmlns="http://www.w3.org/2000/svg" xmlns:xlink="http://www.w3.org/1999/xlink" version="1.1" x="0px" y="0px" viewBox="0 0 100 125" style="enable-background:new 0 0 100 100;" xml:space="preserve"><style type="text/css">
	.st0{fill-rule:evenodd;clip-rule:evenodd;}
</style><g><path d="M33.2102127,21.244009c-0.0522156,0-0.1145821-0.0101528-0.166069-0.0210304l-7.0176659,15.833704h46.9484367   l-7.6514664-15.8127251L33.2102127,21.244009z"/><path d="M65.635437,19.6214485l14.7524872-7.6616783L65.635437,4.3075581H33.4181366l-14.7524929,7.6522121l14.7422848,7.6616802   L65.635437,19.6214485z"/><path d="M74.6393509,36.7641563L97.5,24.8921719L81.9165497,12.9984674l-15.0127716,7.7972021L74.6393509,36.7641563z"/><path d="M2.8326831,26.9081192l43.3320236,64.5088577L24.1450348,38.447979L2.8326831,26.9081192z"/><path d="M31.5987911,20.5051308L17.013195,12.9362755L2.500001,24.8815918l21.8934288,11.8625145L31.5987911,20.5051308z"/><path d="M53.1599083,91.5209351L96.252449,27.3666687L74.9085388,38.4591179L53.1599083,91.5209351z"/><path d="M25.9959431,38.6781845L49.69944,95.6924438l23.3600464-57.0142593H25.9959431z"/></g><text x="0" y="115" fill="#000000" font-size="5px" font-weight="bold" font-family="'Helvetica Neue', Helvetica, Arial-Unicode, Arial, Sans-serif">Created by pandakeanum</text><text x="0" y="120" fill="#000000" font-size="5px" font-weight="bold" font-family="'Helvetica Neue', Helvetica, Arial-Unicode, Arial, Sans-serif">from the Noun Project</text></svg>